<?xml version="1.0" standalone="no"?><!DOCTYPE svg PUBLIC "-//W3C//DTD SVG 1.1//EN" "http://www.w3.org/Graphics/SVG/1.1/DTD/svg11.dtd"><svg t="1711463709205" class="icon" viewBox="0 0 1024 1024" version="1.1" xmlns="http://www.w3.org/2000/svg" p-id="7155" xmlns:xlink="http://www.w3.org/1999/xlink" width="200" height="200"><path d="M64 388.256c0-113.504 0-170.24 22.08-213.6A202.656 202.656 0 0 1 174.656 86.08C218.016 64 274.752 64 388.256 64h247.488c113.504 0 170.24 0 213.6 22.08a202.656 202.656 0 0 1 88.576 88.576c22.08 43.36 22.08 100.096 22.08 213.6v247.488c0 113.504 0 170.24-22.08 213.6a202.656 202.656 0 0 1-88.576 88.576c-43.36 22.08-100.096 22.08-213.6 22.08h-247.488c-113.504 0-170.24 0-213.6-22.08a202.656 202.656 0 0 1-88.576-88.576C64 805.984 64 749.248 64 635.744v-247.488z" fill="#E6001F" p-id="7156"></path><path d="M224 736s199.04-479.872 198.592-480h151.168L800 736h-170.88c0.128 0.256-128.128-294.528-129.728-297.472-0.288 2.56-85.056 199.84-86.08 200.096h91.36c-0.416 0.48 39.712 96.448 39.712 97.376H224z" fill="#FFFFFF" p-id="7157"></path></svg>