<?xml version="1.0" standalone="no"?><!DOCTYPE svg PUBLIC "-//W3C//DTD SVG 1.1//EN" "http://www.w3.org/Graphics/SVG/1.1/DTD/svg11.dtd"><svg t="1713699732992" class="icon" viewBox="0 0 1024 1024" version="1.1" xmlns="http://www.w3.org/2000/svg" p-id="7080" xmlns:xlink="http://www.w3.org/1999/xlink" width="200" height="200"><path d="M703.232 556.50816c-12.8 2.93376-46.4896 4.62336-46.4896 4.62336l-4.27008 13.33248s16.80384-1.42336 29.07136-0.1792c0 0 3.99872-0.44544 4.44416 4.53632 0.1792 4.62336-0.3584 9.6-0.3584 9.6s-0.26112 3.0208-4.5312 3.7376c-4.62336 0.7936-36.27008 1.95072-36.27008 1.95072l-5.15584 17.33632s-1.86368 3.99872 2.40128 2.84672c3.99872-1.07008 37.16096-7.29088 41.51808-6.4 4.61824 1.152 9.7792 7.28576 8.26368 12.97408-1.77664 6.9376-34.84672 28.09344-55.02464 26.58304 0 0-10.58304 0.71168-19.5584-13.60384-8.35584-13.59872 3.2-39.47008 3.2-39.47008s-5.248-12.08832-1.42336-16.08704c0 0 2.30912-2.048 8.88832-2.58048l8.0896-16.80384s-9.2416 0.62464-14.75584-6.13376c-5.15584-6.48704-5.50912-9.4208-1.59744-11.19744 4.17792-2.048 42.67008-9.06752 69.16096-8.18176 0 0 9.24672-0.88576 17.15712 15.11424-0.08704 0 3.82464 6.48704-2.75456 8.00256z m-99.65056 64.5376c-3.3792 8.00256-12.35968 16.5376-23.47008 11.20256-11.02336-5.33504-28.53376-41.1648-28.53376-41.1648s-6.67136-13.33248-7.91552-13.06624c0 0-1.42336-2.57536-2.30912 12.00128-0.89088 14.58176 0.1792 42.94144-5.60128 47.3856-5.51424 4.44416-12.18048 2.6624-15.64672-2.58048-3.11296-5.15584-4.44416-17.42336-2.75456-38.9376 2.048-21.50912 7.01952-44.44672 13.42464-51.64544 6.4-7.1168 11.55584-1.95584 13.51168-0.09216 0 0 8.53504 7.7312 22.66624 30.49472l2.48832 4.17792s12.8 21.51424 14.13632 21.42208c0 0 1.07008 0.97792 1.95584 0.26624 1.3312-0.3584 0.79872-7.28576 0.79872-7.28576s-2.6624-23.38304-14.3104-63.0272c0 0-1.77664-4.98176-0.53248-9.60512 1.15712-4.7104 5.86752-2.48832 5.86752-2.48832s18.13504 9.0624 26.84416 38.5792c8.6272 29.78304 2.75968 56.36096-0.61952 64.36352z m-89.07776-75.8272c-1.5104 3.0208-2.40128 7.3728-10.04544 8.52992 0 0-73.1648 4.98176-76.63104 10.1376 0 0-2.57536 3.0208 1.42336 3.91168 3.99872 0.79872 20.53632 3.0208 28.53888 3.46624 8.52992 0.08704 37.33504 0.3584 47.64672 13.24544 0 0 6.13376 6.13376 5.86752 20.00384-0.26624 14.22336-2.75456 19.2-8.2688 24.35584-5.77536 4.80256-55.38304 27.02336-87.38304-7.11168 0 0-14.76096-16.44544 5.0688-28.89216 0 0 14.3104-8.62208 50.66752 1.5104 0 0 11.02336 4.00384 10.49088 8.00256-0.62464 4.26496-9.06752 8.80128-21.33504 8.53504-11.91424-0.3584-20.62336-6.0416-18.93376-5.15584 1.59744 0.61952-12.8-6.9376-17.24928-1.78176-4.44416 4.7104-3.3792 7.64928 0.97792 10.58304 11.1104 6.30784 54.05184 4.08576 66.85184-10.1376 0 0 5.0688-5.77536-2.6624-10.49088-7.73632-4.44416-29.8752-7.11168-38.49728-7.552-8.2688-0.44544-39.02464 0.08704-43.4688-8.0896 0 0-4.44928-5.51424 0.44032-21.16096 5.15584-16.3584 40.9856-22.66624 56.45312-24.0896 0 0 42.58304-1.5104 50.4064 7.19872-0.09216 0 0.9728 2.048-0.3584 4.98176z m-120.89856 95.91808c-5.15584 3.82464-16.09216 2.13504-19.2-2.13504-3.11808-3.81952-4.18304-19.0208-3.5584-42.84416 0.61952-24.09472 1.152-53.9648 6.30784-58.6752 5.51424-4.80256 8.89344-0.62464 11.02336 2.6624 2.31424 3.20512 5.0688 6.7584 5.69344 14.31552 0.53248 7.55712 2.30912 47.2064 2.30912 47.2064s2.31424 35.7376-2.57536 39.4752z m11.1104-127.83616c-15.02208 4.98176-25.33376 3.29216-34.048-0.44544-3.82464 6.67136-6.0416 8.71424-8.98048 9.15968-4.26496 0.44544-8.0896-6.4-8.80128-8.62208-0.71168-1.6896-2.75456-4.53632-0.26624-11.2896-8.53504-7.64928-9.15456-17.96096-7.7312-24.89344 2.12992-8.00256 16.5376-38.4 60.3648-41.9584 0 0 21.42208-1.60256 25.0624 9.86624h0.62464s20.80256 0.08704 20.35712 18.58048c-0.26624 18.58048-23.11168 41.69216-46.58176 49.60256z m-40.89344-41.15968c-4.44416 7.1168-4.62336 11.38176-2.58048 14.31552 5.0688-7.7312 14.31552-19.9168 27.91424-29.1584-10.48576 0.88576-19.28704 5.42208-25.33376 14.848z m60.53888-11.90912c-13.77792 2.04288-35.11296 20.5312-45.25056 35.64544 15.55968 2.84672 43.02848 1.77664 55.20896-23.02464-0.09216 0 5.77536-15.38048-9.9584-12.6208z m374.08256 143.21152c-8.26368 14.40256-31.46752 44.45184-62.40256 37.4272-10.22464 24.80128-18.75968 49.78176-23.64928 87.296 0 0-1.06496 7.29088-7.11168 4.7104-5.95456-2.12992-15.91296-12.0832-17.8688-25.86624-2.13504-18.13504 5.95456-48.80384 22.40512-83.9168-4.80256-7.82336-8.0896-19.02592-5.248-34.93888 0 0 4.17792-29.5168 33.78176-56.18688 0 0 3.5584-3.10784 5.60128-2.12992 2.30912 0.9728 1.24416 10.57792-0.62464 15.20128-1.86368 4.62336-15.10912 27.55584-15.10912 27.55584s-8.2688 15.47264-5.95968 27.648c15.55968-23.9104 50.944-72.18176 72.89856-56.9856 7.37792 5.248 10.752 16.7168 10.752 29.07136-0.08192 10.93632-2.6624 22.49216-7.46496 31.11424z m-6.4-37.86752s-1.24416-9.51296-10.49088 0.9728c-7.99744 8.8064-22.4 25.42592-34.048 47.9232 12.1856-1.33632 23.91552-8.00256 27.47392-11.38176 5.77536-5.15584 19.2-19.02592 17.06496-37.51424zM360.448 577.664c-1.6896 21.51424-9.95328 57.69728-68.54144 75.56608-38.67136 11.64288-75.20768 6.0416-95.11936 0.9728-0.44544 7.91552-1.3312 11.29472-2.58048 12.62592-1.6896 1.6896-14.3104 8.98048-21.248-1.3312-3.10784-4.8896-4.7104-13.78304-5.59616-21.69344-44.80512-20.62336-65.4336-50.31424-66.23232-51.65056-0.9728-0.9728-11.19744-11.64288-0.9728-24.71424 9.6-11.82208 40.98048-23.64416 69.248-28.44672 0.97792-24.18176 3.82464-42.40384 7.20384-50.75968 4.08576-9.69216 9.2416-0.97792 13.69088 5.60128 3.73248 4.8896 5.95456 25.9584 6.13376 42.75712 18.48832-0.88576 29.42464 0.44544 50.048 4.17792 26.84928 4.8896 44.8 18.5856 43.20256 34.14016-1.152 15.28832-15.20128 21.60128-20.5312 22.04672-5.60128 0.44544-14.31552-3.5584-14.31552-3.5584-5.95456-2.8416-0.44544-5.32992 6.7584-8.448 7.82336-3.81952 6.0416-7.7312 6.0416-7.7312-2.93376-8.53504-37.78048-14.4896-72.448-14.4896-0.1792 19.11296 0.79872 50.85184 1.24416 69.34016 24.2688 4.62336 42.40384 3.7376 42.40384 3.7376s88.54016-2.49344 91.20768-59.0336C332.8 520.14592 241.7664 465.82784 174.46912 448.58368c-67.20512-17.60256-105.25696-5.33504-108.544-3.64544-3.5584 1.77664-0.26624 2.31424-0.26624 2.31424s3.64544 0.53248 9.95328 2.6624c6.67136 2.13504 1.5104 5.60128 1.5104 5.60128-11.4688 3.64544-24.35584 1.3312-26.84416-3.91168-2.48832-5.24288 1.6896-9.95328 6.48704-16.71168 4.80256-7.11168 10.04544-6.84544 10.04544-6.84544 83.1232-28.8 184.37632 23.296 184.37632 23.296 94.85312 48.09216 111.03232 104.448 109.2608 126.32064z m-250.86976-2.93376c-9.4208 4.62336-2.93376 11.2896-2.93376 11.2896 17.6896 19.02592 39.4752 30.93504 60.1856 38.31808 2.40128-32.80384 2.048-44.3648 2.30912-60.89728-32.3584 2.22208-51.02592 7.37792-59.56096 11.2896zM974.464 567.97184v11.73504c0 2.58048-2.048 4.62336-4.62336 4.62336h-55.91552c0 2.93376 0.08704 5.51424 0.08704 7.9104 0 17.33632-0.71168 31.47264-2.40128 47.3856a4.608 4.608 0 0 1-4.5312 4.17792h-12.08832a4.3008 4.3008 0 0 1-4.27008-4.80256c1.6896-15.8208 2.48832-29.77792 2.48832-46.76096 0-2.48832 0-5.0688-0.08704-7.9104h-55.296a4.59264 4.59264 0 0 1-4.62336-4.62336v-11.73504c0-2.57536 2.048-4.61824 4.62336-4.61824h54.49728a409.68192 409.68192 0 0 0-7.20384-56.18688 4.08576 4.08576 0 0 1 0.80384-3.2 3.75296 3.75296 0 0 1 2.93376-1.42336h13.06624c2.048 0 3.7376 1.42336 4.17792 3.46624a450.93888 450.93888 0 0 1 7.11168 57.344h56.6272a4.7104 4.7104 0 0 1 4.62336 4.61824z" fill="#ffffff" p-id="7081"></path><path d="M898.36544 474.89536C869.4784 403.8656 820.66944 343.32672 757.1968 299.776c-64.98304-44.544-141.16864-68.096-220.288-68.096-130.86208 0-252.29312 64.98304-324.74624 173.88032a4.5568 4.5568 0 0 0-0.53248 4.00384 4.33152 4.33152 0 0 0 2.8416 2.8416l10.1376 3.46624c0.61952 0.1792 1.24416 0.27136 1.77664 0.27136 1.86368 0 3.64544-0.97792 4.7104-2.49344a372.20864 372.20864 0 0 1 130.1504-117.6064c53.6064-28.98432 114.31936-44.3648 175.56992-44.3648 74.05568 0 145.43872 21.86752 206.60224 63.11936a370.10944 370.10944 0 0 1 133.96992 162.59584c0.79872 1.95584 2.75456 3.28704 4.8896 3.28704h12.08832a4.0704 4.0704 0 0 0 3.46624-1.8688 3.8912 3.8912 0 0 0 0.53248-3.91168zM226.38592 413.11232c-0.26624 0-0.53248-0.08704-0.79872-0.17408 0.26624 0.08704 0.53248 0.17408 0.79872 0.17408h0zM879.78496 479.0784c0.27136 0.17408 0.5376 0.35328 0.80384 0.44032-0.26624-0.17408-0.53248-0.26624-0.80384-0.44032z" fill="#ffffff" p-id="7082"></path></svg>