<?xml version="1.0" standalone="no"?><!DOCTYPE svg PUBLIC "-//W3C//DTD SVG 1.1//EN" "http://www.w3.org/Graphics/SVG/1.1/DTD/svg11.dtd"><svg t="1713756054220" class="icon" viewBox="0 0 1024 1024" version="1.1" xmlns="http://www.w3.org/2000/svg" p-id="6977" xmlns:xlink="http://www.w3.org/1999/xlink" width="200" height="200">
<circle cx="500" cy="500" r="400" style="fill:#fff" />
<path d="M524.298744 337.415522h-73.170541v144.213926h115.091727v60.385075h-115.091727v144.213927h76.717302c19.716748 0 161.871119 2.226302 161.654799-167.792904-0.216321-170.010193-137.854994-181.020025-165.20156-181.020024z" p-id="6978" fill="#000000" data-spm-anchor-id="a313x.search_index.0.i15.3b6f3a815BQjBW"></path><path d="M512 0C229.228037 0 0 229.228037 0 511.995493c0 282.771963 229.228037 512 512 512 282.76295 0 511.990987-229.228037 511.990987-512C1023.990987 229.228037 794.76295 0 512 0z m20.117843 788.525698H346.69028V542.01903H281.329824v-60.385075h65.355949V235.113767h159.140068c37.648848 0 287.003741-7.819099 287.003741 281.329825 0 293.930516-260.711739 272.082106-260.711739 272.082106z" p-id="6979" fill="#000000"></path></svg>
