<?xml version="1.0" standalone="no"?><!DOCTYPE svg PUBLIC "-//W3C//DTD SVG 1.1//EN" "http://www.w3.org/Graphics/SVG/1.1/DTD/svg11.dtd"><svg t="1711463435243" class="icon" viewBox="0 0 1072 1024" version="1.1" xmlns="http://www.w3.org/2000/svg" p-id="2330" xmlns:xlink="http://www.w3.org/1999/xlink" width="209.375" height="200"><path d="M984.35993599 716.59520001a25.60000003 25.60000003 0 1 1 3.072 51.09759999L119.61753599 819.2768l50.45760001 83.8912a25.60000003 25.60000003 0 0 1-6.272 33.4592l-2.4832 1.68960001a25.60000003 25.60000003 0 0 1-35.1232-8.75520001l-65.71520001-109.2352a33.28 33.28 0 0 1 26.54720001-50.3808l897.3056-53.35039999z" fill="#ffffff" p-id="2331"></path><path d="M129.319936 890.7776c18.1504-0.384 33.664 6.656 50.2528 19.8144 4.1472 3.3024 8.2944 6.912 13.44 11.5968 1.9712 1.792 10.3168 9.5488 12.4928 11.52 22.656 20.6592 37.4528 29.056 56.4224 29.568 19.86559998 0.5376 34.4576-6.656 59.98080001-27.008 8.2432-6.6304 12.6464-10.1376 17.04959999-13.44 21.1712-16.0256 38.5792-24.2432 59.904-24.704 21.09440001-0.4352 38.656 6.656 59.4432 20.81280001 2.9696 2.048 5.99040001 4.1984 9.7792 6.93759999l9.26719999 6.8096c24.7296 17.97119999 39.68 24.7552 60.36480001 24.75519999 20.4288 0 32.6912-6.16960001 52.3264-23.34719998 0.512-0.4352 8.2176-7.2704 10.59839999-9.29280001 20.4288-17.6128 36.736-26.1888 59.5968-26.6752 18.7136-0.384 35.0976 5.12000001 53.81120001 16.0256 6.144 3.584 12.288 7.5264 23.5776 14.92480001 25.3952 16.38400001 41.4976 22.8096 63.5136 22.80959999 21.96480001 0 35.73760001-5.99040001 56.6784-21.76l10.6752-8.064 3.072-2.30399999c19.32800001-14.1056 35.2256-21.19679999 55.8848-21.63200001 36.864-0.768 81.45919999 19.2 135.7056 58.6752a25.60000003 25.60000003 0 0 1-30.1056 41.3952c-46.0032-33.4848-81.5104-49.35680001-104.49920001-48.896-8.1152 0.1792-15.1296 3.328-26.77759999 11.82720001-2.7136 1.9712-13.1328 9.9072-13.15840001 9.93279999-29.0048 21.8112-52.48 32.0256-87.47519999 32.0256-33.9456 0-58.3168-9.728-91.2384-30.976a505.60000001 505.60000001 0 0 0-21.6064-13.7216c-11.2896-6.5792-19.2-9.21600001-26.98240001-9.0624-8.2688 0.1536-15.0272 3.712-27.26399999 14.25920001-2.048 1.792-9.5744 8.448-10.3168 9.06239999-28.05760001 24.576-50.816 35.9936-86.016 35.99360001-33.9968 0-57.7792-10.7776-90.47040001-34.56000001l-9.31839999-6.80959999c-3.3792-2.4832-5.99040001-4.352-8.448-6.01600001-12.8-8.7296-21.19679999-12.1088-29.5424-11.9296-8.1408 0.1536-16.7424 4.224-30.1056 14.336-3.7888 2.8672-7.6032 5.888-16.0256 12.672-34.17600001 27.21280002-58.1632 39.0912-93.28639999 38.144-34.30399999-0.9472-58.5728-14.72-89.52320001-42.9312L158.503936 960c-4.352-3.9936-7.68-6.88640001-10.75199998-9.3184-8.08960001-6.4-13.31200001-8.7808-17.30560002-8.704-18.0992 0.384-48.3072 22.528-86.7072 68.352A25.60000003 25.60000003 0 0 1 4.494336 977.408c47.1808-56.32000001 87.5008-85.8624 124.8512-86.656zM778.715136 617.1648c-35.1488-103.68-69.4528-181.8624-102.5792-234.31680001-36.4288-57.6512-100.4544-129.1264-191.9232-213.888a25.60000003 25.60000003 0 0 1 34.816-37.5552c94.4384 87.5008 161.17760001 162.048 200.3968 224.10240001 37.1456 58.8032 74.496 145.0752 112.46080001 259.17439999 20.096-0.9472 38.0928-0.768 54.01599999 0.58880001l7.808 0.768c22.6304 2.61120001 48.0256 8.2432 76.2112 16.896a25.60000003 25.60000003 0 1 1-15.0016 48.9472c-25.3952-7.7824-47.744-12.7488-67.0208-14.9504-14.848-1.7152-32.7168-2.07359999-53.5296-1.1008a51.2 51.2 0 0 1-51.0464-34.99520001l-4.608-13.67039999z" fill="#ffffff" p-id="2332"></path><path d="M479.09273601 138.0352a25.60000003 25.60000003 0 0 1 34.68799999-10.368c139.008 74.9568 241.152 149.6832 306.4064 224.7168 65.1008 74.8544 120.44799998 173.568 166.2208 296.064a25.60000003 25.60000003 0 1 1-47.9744 17.92c-43.7504-117.09439999-96.128-210.5344-156.8768-280.3712-60.6464-69.7088-158.0288-140.9792-292.096-213.24799999a25.60000003 25.60000003 0 0 1-10.36799999-34.71360001zM392.99993599 596.5312c81.10080001 0 170.0864 15.2832 266.98240001 45.7216a25.60000003 25.60000003 0 0 1-15.36 48.8448c-92.16-28.928-176.0512-43.36640001-251.648-43.3664-73.93280001 0-154.62400001 22.4256-242.1504 67.6864a25.60000003 25.60000003 0 1 1-23.5264-45.4656c94.36160001-48.79359999 182.912-73.4208 265.6768-73.4208z" fill="#ffffff" p-id="2333"></path><path d="M121.281536 23.27040001a25.60000003 25.60000003 0 0 1 34.7904 10.03519999c70.144 127.18080002 105.4976 244.6592 105.4976 352.4608 0 108.1856-33.79200001 215.1936-100.9152 320.6656a25.60000003 25.60000003 0 0 1-43.1872-27.4944c62.08-97.536 92.928-195.1488 92.92799999-293.1712 0-98.3552-32.896-207.616-99.14879999-327.7056A25.60000003 25.60000003 0 0 1 121.281536 23.27040001z" fill="#ffffff" p-id="2334"></path><path d="M109.915136 36.096A25.60000003 25.60000003 0 0 1 143.22073599 21.9392c132.6848 53.5296 249.3184 137.6512 349.67040001 252.1344 65.7152 74.9568 118.0416 175.6416 155.52 282.4192 12.6464 35.968 22.39999999 69.888 27.0336 91.8272 1.02400001 4.8128 1.7408 8.80640001 2.1248 11.9552 0.256 2.3296 0.4096 4.352 0.3072 6.5536-0.1024 2.6368-0.1024 2.6368-1.53599999 8.14080001-3.9168 10.1376-3.9168 10.1376-25.60000001 17.27999999-15.5136-5.0432-15.5136-5.0432-18.816-9.52319999-2.2016-2.9952-2.2016-2.9952-3.2256-4.86400001a49.15200001 49.15200001 0 0 1-2.5344-5.632c-1.28-3.3024-2.73919999-7.7056-4.4032-13.2864a25.472 25.472 0 0 1-0.12800001-14.2848l0.17920001-0.64-0.1024-0.5376a861.36320001 861.36320001 0 0 0-18.8928-62.208L600.10393601 573.44c-35.50719999-101.12-84.99200002-196.352-145.71520001-265.62560001-95.1552-108.544-205.184-187.904-330.3168-238.38719998a25.60000003 25.60000003 0 0 1-14.1568-33.33120001zM969.127936 722.81599999a25.60000003 25.60000003 0 1 1 33.536 38.65600001c-57.44639999 49.81760001-101.9136 84.5312-133.9392 104.448-10.2912 6.3744-22.73280001 13.97759999-37.37600001 22.784l-13.03039999 7.808a12346.36800001 12346.36800001 0 0 1-100.608 59.4688 25.60000003 25.60000003 0 1 1-25.8816-44.1856c69.504-40.704 119.4752-70.5024 149.8624-89.3952 29.2352-18.1504 71.8592-51.4304 127.4368-99.58399999z" fill="#ffffff" p-id="2335"></path></svg>