<?xml version="1.0" standalone="no"?><!DOCTYPE svg PUBLIC "-//W3C//DTD SVG 1.1//EN" "http://www.w3.org/Graphics/SVG/1.1/DTD/svg11.dtd"><svg t="1713699859012" class="icon" viewBox="0 0 1024 1024" version="1.1" xmlns="http://www.w3.org/2000/svg" p-id="8192" xmlns:xlink="http://www.w3.org/1999/xlink" width="200" height="200"><path d="M0 405.674667c0-1.834667 0.426667-3.114667 1.194667-3.84 0.768-0.725333 2.005333-1.066667 3.669333-1.066667h14.037333c2.986667 0 4.778667 1.450667 5.418667 4.309333l1.365333 5.077334c3.882667-3.754667 8.618667-6.784 14.08-8.96a44.373333 44.373333 0 0 1 16.896-3.370667c12.544 0 22.528 4.650667 29.866667 13.909333 7.296 9.258667 10.965333 21.76 10.965333 37.546667 0 10.837333-1.792 20.266667-5.418666 28.373333-3.669333 8.106667-8.576 14.293333-14.805334 18.645334a36.266667 36.266667 0 0 1-21.418666 6.570666c-5.333333 0-10.368-0.853333-15.146667-2.56a36.565333 36.565333 0 0 1-12.288-6.997333v42.794667c0 1.834667-0.341333 3.114667-1.066667 3.84-0.725333 0.682667-1.962667 1.066667-3.84 1.066666H4.906667c-1.706667 0-2.901333-0.384-3.669334-1.066666-0.810667-0.725333-1.194667-2.005333-1.194666-3.84z m47.488 13.653333a37.034667 37.034667 0 0 0-19.072 5.290667v51.456a35.584 35.584 0 0 0 19.072 5.290666c7.253333 0 12.629333-2.474667 16.042667-7.424 3.456-4.992 5.162667-12.8 5.162666-23.466666 0-10.837333-1.706667-18.730667-5.034666-23.68-3.413333-4.949333-8.789333-7.424-16.170667-7.424z m95.914667-3.712c5.162667-5.717333 10.069333-9.813333 14.677333-12.202667a31.274667 31.274667 0 0 1 14.72-3.626666h2.688c1.834667 0 3.114667 0.384 3.925333 1.066666 0.768 0.725333 1.152 2.005333 1.152 3.84v16.426667c0 1.706667-0.341333 2.901333-1.066666 3.712-0.725333 0.768-1.962667 1.152-3.797334 1.152a39.381333 39.381333 0 0 1-3.498666-0.170667 58.410667 58.410667 0 0 0-16.341334 1.066667c-4.266667 0.853333-7.936 1.92-10.922666 3.242667v65.706666c0 1.706667-0.341333 2.944-1.066667 3.712-0.682667 0.768-1.962667 1.194667-3.797333 1.194667h-18.645334c-1.706667 0-2.944-0.426667-3.712-1.194667-0.768-0.768-1.194667-2.005333-1.194666-3.712V405.674667c0-1.834667 0.426667-3.114667 1.194666-3.84 0.768-0.725333 2.005333-1.066667 3.712-1.066667h13.994667c2.986667 0 4.778667 1.450667 5.461333 4.266667z m65.109333-30.293333a16.896 16.896 0 0 1-11.861333-4.096 14.421333 14.421333 0 0 1-4.48-11.178667c0-4.693333 1.493333-8.405333 4.48-11.093333a16.853333 16.853333 0 0 1 11.861333-4.138667c4.949333 0 8.874667 1.365333 11.861333 4.096 2.986667 2.730667 4.48 6.442667 4.48 11.136a14.506667 14.506667 0 0 1-4.48 11.178667 16.896 16.896 0 0 1-11.861333 4.096z m-14.208 20.352c0-1.834667 0.426667-3.114667 1.152-3.84 0.810667-0.725333 2.048-1.066667 3.712-1.066667h18.688c1.834667 0 3.072 0.341333 3.797333 1.066667s1.066667 2.005333 1.066667 3.84v90.154666c0 1.706667-0.341333 2.944-1.066667 3.712-0.725333 0.768-1.962667 1.194667-3.84 1.194667h-18.645333c-1.706667 0-2.901333-0.426667-3.712-1.194667-0.768-0.768-1.152-2.005333-1.152-3.712z m78.378667 4.693333c6.869333-4.565333 13.056-7.808 18.56-9.685333 5.546667-1.92 11.221333-2.858667 17.066666-2.858667 11.648 0 19.882667 4.181333 24.704 12.544 6.613333-4.437333 12.8-7.68 18.688-9.6 5.845333-1.962667 11.861333-2.944 18.090667-2.944 9.088 0 16.085333 2.56 21.12 7.637333 4.992 5.12 7.466667 12.202667 7.466667 21.333334v69.034666c0 1.706667-0.341333 2.944-1.066667 3.712-0.725333 0.810667-1.962667 1.152-3.797333 1.152h-18.688c-1.706667 0-2.901333-0.341333-3.669334-1.152-0.768-0.768-1.194667-2.005333-1.194666-3.712V433.066667c0-8.874667-3.925333-13.312-11.861334-13.312-6.997333 0-14.08 1.706667-21.205333 5.077333v70.997333c0 1.706667-0.341333 2.944-1.066667 3.712-0.725333 0.810667-1.962667 1.152-3.84 1.152h-18.645333c-1.706667 0-2.901333-0.341333-3.669333-1.152-0.810667-0.768-1.194667-2.005333-1.194667-3.712V433.066667c0-8.874667-3.968-13.312-11.861333-13.312-7.253333 0-14.378667 1.706667-21.418667 5.248v70.826666c0 1.706667-0.341333 2.944-1.066667 3.712-0.725333 0.810667-1.962667 1.152-3.797333 1.152h-18.688c-1.664 0-2.901333-0.341333-3.669333-1.152-0.768-0.768-1.152-2.005333-1.152-3.712V405.674667c0-1.834667 0.384-3.114667 1.152-3.84 0.768-0.725333 2.005333-1.066667 3.669333-1.066667h14.037333c2.986667 0 4.778667 1.450667 5.461334 4.309333z m187.178666 49.493333a77.226667 77.226667 0 0 1-19.242666-2.133333c0.768 8.704 3.413333 14.933333 7.893333 18.773333 4.48 3.754667 11.221333 5.632 20.309333 5.632 3.626667 0 7.168-0.213333 10.624-0.682666a131.413333 131.413333 0 0 0 15.445334-3.328 6.101333 6.101333 0 0 1 0.981333-0.085334c2.218667 0 3.328 1.493333 3.328 4.48v9.002667c0 2.090667-0.298667 3.541333-0.853333 4.394667a7.210667 7.210667 0 0 1-3.413334 2.261333 83.328 83.328 0 0 1-30.208 5.461333c-16.085333 0-28.416-4.394667-37.034666-13.312-8.661333-8.832-12.970667-21.546667-12.970667-38.101333 0-16.981333 4.437333-30.293333 13.226667-39.893333 8.832-9.685333 21.077333-14.506667 36.778666-14.506667 12.074667 0 21.504 2.944 28.330667 8.789333a29.44 29.44 0 0 1 10.24 23.466667c0 9.813333-3.712 17.194667-11.008 22.186667-7.338667 5.077333-18.133333 7.552-32.426667 7.552z m2.730667-42.24c-12.458667 0-19.626667 7.68-21.589333 23.04 5.205333 1.066667 10.965333 1.578667 17.322666 1.578667 6.613333 0 11.392-1.024 14.378667-3.029333 2.986667-2.005333 4.48-5.12 4.48-9.301334 0-8.234667-4.864-12.330667-14.592-12.330666z m125.781333 83.029334a8.96 8.96 0 0 1-3.2-0.469334 5.077333 5.077333 0 0 1-2.133333-1.578666 11.690667 11.690667 0 0 1-1.621333-3.029334l-33.152-87.04a79.488 79.488 0 0 1-0.981334-2.688 6.912 6.912 0 0 1-0.384-2.133333c0-2.005333 1.28-2.986667 3.882667-2.986667h19.370667c2.090667 0 3.584 0.426667 4.565333 1.194667 0.981333 0.768 1.706667 2.090667 2.218667 3.925333l19.968 69.205334 20.352-69.205334a7.466667 7.466667 0 0 1 2.218666-3.925333c0.981333-0.768 2.474667-1.152 4.565334-1.152h18.773333c2.602667 0 3.882667 0.938667 3.882667 2.901333a6.826667 6.826667 0 0 1-0.384 2.133334l-0.938667 2.773333-33.152 86.997333a11.690667 11.690667 0 0 1-1.664 2.986667 5.205333 5.205333 0 0 1-2.005333 1.621333 8.832 8.832 0 0 1-3.328 0.426667z m86.186667-115.328a16.768 16.768 0 0 1-11.818667-4.138667 14.421333 14.421333 0 0 1-4.48-11.093333c0-4.693333 1.493333-8.448 4.48-11.178667a16.768 16.768 0 0 1 11.818667-4.096c4.906667 0 8.832 1.365333 11.818667 4.096 2.986667 2.730667 4.437333 6.442667 4.437333 11.136 0 4.693333-1.450667 8.405333-4.437333 11.136a16.768 16.768 0 0 1-11.818667 4.138667z m-9.301333 115.328c-1.706667 0-2.901333-0.426667-3.669334-1.194667-0.810667-0.768-1.194667-2.005333-1.194666-3.712V405.632c0-1.834667 0.426667-3.072 1.194666-3.84 0.768-0.682667 2.005333-1.024 3.669334-1.024h18.602666c1.792 0 3.072 0.341333 3.797334 1.066667 0.682667 0.725333 1.024 1.962667 1.024 3.84v90.069333c0 1.706667-0.341333 2.986667-1.024 3.712-0.725333 0.810667-2.005333 1.194667-3.84 1.194667z m83.114666 2.133333a37.077333 37.077333 0 0 1-21.888-6.528 41.386667 41.386667 0 0 1-14.250666-18.176 68.266667 68.266667 0 0 1-4.949334-26.88c0-16.213333 3.84-29.098667 11.434667-38.826667a36.522667 36.522667 0 0 1 30.250667-14.549333 41.813333 41.813333 0 0 1 26.538666 8.789333V360.874667c0-1.834667 0.426667-3.114667 1.152-3.84 0.768-0.682667 2.005333-1.066667 3.712-1.066667h18.602667c1.792 0 3.029333 0.384 3.754667 1.066667 0.725333 0.725333 1.066667 2.005333 1.066666 3.84v134.869333c0 1.706667-0.341333 2.986667-1.066666 3.712-0.725333 0.810667-1.962667 1.194667-3.754667 1.194667h-15.530667a5.76 5.76 0 0 1-3.584-0.981334 5.845333 5.845333 0 0 1-1.834666-3.328l-1.152-4.48a40.874667 40.874667 0 0 1-28.501334 10.922667z m9.301334-21.504a32.512 32.512 0 0 0 17.834666-5.461333v-51.626667a37.205333 37.205333 0 0 0-19.2-4.864c-6.826667 0-11.946667 2.56-15.274666 7.68-3.413333 5.162667-5.034667 12.970667-5.034667 23.381333 0 10.453333 1.749333 18.176 5.290667 23.296 3.584 5.077333 9.045333 7.594667 16.384 7.594667z m110.421333-21.76c-7.210667 0-13.44-0.682667-18.773333-2.133333 0.768 8.576 3.328 14.72 7.68 18.432 4.394667 3.712 10.965333 5.546667 19.84 5.546666 3.541333 0 6.997333-0.213333 10.325333-0.682666a127.872 127.872 0 0 0 15.104-3.242667 5.76 5.76 0 0 1 0.938667-0.085333c2.133333 0 3.2 1.493333 3.2 4.394666v8.832c0 2.048-0.298667 3.498667-0.853334 4.309334a7.04 7.04 0 0 1-3.285333 2.218666 80.853333 80.853333 0 0 1-29.44 5.376c-15.658667 0-27.733333-4.352-36.096-13.056-8.405333-8.704-12.629333-21.162667-12.629333-37.376 0-16.64 4.266667-29.653333 12.885333-39.125333 8.618667-9.472 20.565333-14.208 35.84-14.208 11.776 0 20.992 2.901333 27.605333 8.661333a28.928 28.928 0 0 1 9.984 22.997334c0 9.6-3.584 16.853333-10.709333 21.76-7.168 4.906667-17.706667 7.381333-31.573333 7.381333z m2.688-41.386667c-12.16 0-19.2 7.509333-21.077333 22.613334 5.077333 1.024 10.666667 1.536 16.896 1.536 6.4 0 11.093333-1.024 14.037333-2.986667 2.901333-1.962667 4.352-4.992 4.352-9.088 0-8.106667-4.736-12.117333-14.208-12.117333z m104.192 85.461334c-15.36 0-27.392-4.693333-36.053333-13.994667-8.661333-9.301333-12.970667-22.314667-12.970667-38.997333 0-16.554667 4.309333-29.482667 12.970667-38.826667 8.661333-9.301333 20.693333-13.952 36.053333-13.952s27.392 4.650667 36.053333 13.952c8.661333 9.344 12.970667 22.272 12.970667 38.826667 0 16.64-4.309333 29.696-12.970667 38.997333-8.661333 9.301333-20.693333 13.994667-36.053333 13.994667z m0-21.930667c13.568 0 20.352-10.325333 20.352-31.061333 0-20.608-6.826667-30.890667-20.352-30.890667-13.568 0-20.352 10.282667-20.352 30.890667 0 20.736 6.826667 31.061333 20.352 31.061333z m-292.010667 80.469333c17.28-13.056 40.277333-17.408 59.306667-17.408 17.834667 0 32.256 3.84 35.328 7.893334 6.4 8.533333-1.664 67.584-33.066667 95.744-4.778667 4.352-9.386667 2.005333-7.253333-3.712 7.082667-18.858667 22.869333-61.269333 15.36-71.552-7.466667-10.325333-49.408-4.906667-68.266667-2.474667-2.901333 0.341333-4.565333-0.853333-4.778666-2.602667v-0.981333c0.170667-1.536 1.28-3.328 3.370666-4.906667z m-434.517333-7.338666a4.48 4.48 0 0 1 4.522667-3.882667c1.152 0 2.432 0.384 3.797333 1.194667a502.528 502.528 0 0 0 264.277333 75.605333c64.853333 0 136.106667-14.506667 201.642667-44.501333 9.898667-4.48 18.176 6.997333 8.533333 14.762666-58.496 46.506667-143.317333 71.253333-216.32 71.253334-102.272 0-194.432-40.789333-264.149333-108.672a7.381333 7.381333 0 0 1-2.304-4.138667z" p-id="8193" fill="#ffffff"></path></svg>